<svg width="28" height="37" viewBox="0 0 30 45" fill="none" xmlns="http://www.w3.org/2000/svg">
<path d="M27.0261 23.3445C27.0261 30.6099 21.1362 36.4998 13.8719 36.4998C6.60768 36.4998 0.717773 30.6109 0.717773 23.3445C0.717773 16.0782 6.60768 10.1904 13.8719 10.1904C21.1362 10.1904 27.0261 16.0792 27.0261 23.3445Z" fill="#F6861F"/>
<g style="mix-blend-mode:multiply">
<path d="M22.5689 13.4813C22.555 16.5744 21.7379 19.737 20.4074 22.1862C18.1475 26.3467 14.5421 29.4954 9.75704 30.2558C7.48643 30.6163 4.8618 30.52 2.56445 30.0697C4.85966 33.9201 9.06292 36.4998 13.8705 36.4998C21.1358 36.4998 27.0246 30.6109 27.0246 23.3445C27.0246 19.4162 25.2994 15.891 22.5689 13.4813Z" fill="#E8C8B1"/>
</g>
<path d="M7.40285 6.91234C9.98576 7.98721 13.1034 6.39789 13.1034 6.39789C13.1034 6.39789 11.7548 3.57754 9.44993 1.9925C7.42745 0.599971 5.80069 1.93581 3.52901 1.5187C3.04451 2.68128 4.81993 5.8396 7.40285 6.91341V6.91234Z" fill="#1A863A"/>
<g style="mix-blend-mode:soft-light" opacity="0.3">
<path d="M8.6042 2.42564C7.46943 2.04168 5.46834 2.44275 4.50684 1.5989C6.29509 1.59355 7.7304 0.807444 9.45127 1.99248C10.0384 2.39677 10.5614 2.88019 11.0181 3.37752C10.2203 3.36362 9.38924 2.69196 8.60527 2.42671L8.6042 2.42564Z" fill="white"/>
</g>
<g style="mix-blend-mode:multiply">
<path d="M5.28765 4.05132C6.42456 4.8171 7.67377 5.48663 9.08876 5.37646C10.1914 5.2909 11.0898 4.99892 12.0353 4.63956C12.7273 5.6139 13.1027 6.39787 13.1027 6.39787C13.1027 6.39787 9.98609 7.98719 7.40211 6.91231C5.12615 5.96471 3.478 3.39997 3.4502 2.00851C3.85662 2.79997 4.47053 3.50051 5.28658 4.05132H5.28765Z" fill="#D8D9DA"/>
</g>
<path d="M13.8791 7.48453C13.8791 7.48453 13.8545 7.44924 13.8085 7.384C13.785 7.35084 13.7572 7.3102 13.724 7.26314C13.6909 7.22357 13.6513 7.17865 13.6085 7.12731C13.569 7.0749 13.5091 7.02143 13.4502 6.96046C13.3925 6.89843 13.3208 6.83854 13.246 6.77436C13.0962 6.64388 12.9112 6.51447 12.7026 6.37864C12.4898 6.25029 12.2545 6.11339 11.9935 5.9904C11.7347 5.86312 11.4524 5.7412 11.1572 5.62355C10.862 5.50483 10.5518 5.3936 10.2352 5.2813C9.91758 5.17114 9.59351 5.06312 9.26838 4.95616C8.6181 4.74226 7.96462 4.53156 7.36033 4.31124C7.05766 4.20001 6.76674 4.09091 6.49508 3.97647C6.22235 3.86417 5.96781 3.74759 5.73572 3.63529C5.62128 3.57647 5.51112 3.51978 5.4063 3.46631C5.30363 3.40855 5.20737 3.35401 5.11539 3.30267C4.93678 3.19358 4.7817 3.09839 4.65977 3.00962C4.53464 2.92727 4.44373 2.85133 4.37955 2.8032C4.31645 2.754 4.28223 2.72833 4.28223 2.72833C4.28223 2.72833 4.31752 2.75293 4.38276 2.79999C4.44907 2.84598 4.54212 2.91657 4.67047 2.99465C4.7956 3.077 4.95389 3.16577 5.13571 3.26631C5.22876 3.31337 5.32716 3.36363 5.4309 3.41711C5.53679 3.46631 5.64802 3.51765 5.7646 3.57112C5.99989 3.67273 6.25658 3.77861 6.53145 3.87808C6.80632 3.98075 7.10044 4.07701 7.40525 4.17541C8.01596 4.36899 8.67479 4.55188 9.33362 4.73905C9.66303 4.8321 9.99352 4.92729 10.3176 5.02461C10.6406 5.12408 10.9593 5.22248 11.2652 5.33157C11.5711 5.43852 11.8652 5.55082 12.139 5.67168C12.4149 5.78826 12.6673 5.92088 12.8994 6.04815C13.1272 6.18398 13.3337 6.31554 13.5048 6.45244C13.5903 6.51982 13.6716 6.58292 13.7411 6.6503C13.8117 6.71554 13.877 6.77115 13.9326 6.83533C13.9882 6.89629 14.0385 6.95191 14.0813 6.99897C14.1166 7.04496 14.1465 7.08453 14.1711 7.11661C14.2203 7.18079 14.246 7.21394 14.246 7.21394L13.8791 7.48346V7.48453Z" fill="#06471F"/>
<path d="M11.4627 11.7433C11.4627 11.7433 11.5065 11.7145 11.5889 11.661C11.667 11.6043 11.806 11.538 11.9354 11.4214C12.0744 11.3155 12.2295 11.1733 12.3996 10.999C12.4809 10.9091 12.5579 10.8054 12.6445 10.7027C12.7183 10.5915 12.7975 10.4738 12.8691 10.3497C13.0028 10.0888 13.1354 9.80429 13.2124 9.47808C13.2969 9.15615 13.3611 8.81069 13.3803 8.44492C13.4274 7.71443 13.3579 6.92084 13.2124 6.13687C13.1247 5.74649 13.037 5.35718 12.9098 4.97964C12.7878 4.60316 12.6627 4.23418 12.5547 3.87374C12.3557 3.14646 10.5536 2.30902 10.4349 1.69939C10.3707 1.39564 12.7654 -0.240736 13.4114 0.897244C13.5761 1.17853 17.0499 4.58284 13.5985 10.5893C14.4809 10.5423 13.1098 10.9166 13.0039 11.0257C12.8862 11.1252 12.7793 11.2225 12.6734 11.3048C12.5622 11.3808 12.4573 11.4514 12.3611 11.5166C12.2584 11.5754 12.16 11.6203 12.0744 11.6663C11.9044 11.7615 11.7675 11.7915 11.6744 11.8332C11.5825 11.8685 11.5333 11.8856 11.5333 11.8856L11.4637 11.7444L11.4627 11.7433Z" fill="#533639"/>
<path d="M14.3579 5.29086C14.3376 6.85344 14.0723 8.29517 13.36 9.69946C13.2627 9.89091 12.7108 10.7968 12.667 11.3059C12.6691 11.3048 12.6702 11.3038 12.6723 11.3016C12.7782 11.2193 12.8862 11.1219 13.0028 11.0225C13.1087 10.9144 14.4788 10.5401 13.5975 10.5861C17.0488 4.57962 13.575 1.17531 13.4103 0.89402C13.19 0.50685 12.7664 0.444817 12.3076 0.538936C13.7194 1.58601 14.3793 3.57426 14.3579 5.28979V5.29086Z" fill="#764B4F"/>
<path d="M10.2285 11.8845C10.3141 11.9252 12.405 11.4589 12.9997 11.0236C13.5943 10.5872 14.3441 10.5166 14.3441 10.5166C14.3441 10.5166 14.6189 11.3498 13.035 11.8867C11.4499 12.4246 10.2285 11.8845 10.2285 11.8845Z" fill="#F6861F"/>
<g style="mix-blend-mode:soft-light">
<path d="M8.10531 19.66C5.83256 23.2601 5.19191 27.1072 3.45286 26.0098C1.71273 24.9125 1.06994 20.2547 3.34269 16.6536C5.61544 13.0535 9.94276 11.8738 11.6829 12.9722C13.4219 14.0696 10.3781 16.06 8.10531 19.6611V19.66Z" fill="#FDC485"/>
</g>
<g style="mix-blend-mode:soft-light">
<path d="M19.3586 31.4494C19.4185 31.4452 19.4709 31.4901 19.4741 31.55C19.4773 31.6099 19.4324 31.6612 19.3725 31.6655C19.3126 31.6698 19.2613 31.6238 19.2581 31.5639C19.2538 31.5051 19.2998 31.4526 19.3586 31.4494Z" fill="white"/>
<path d="M20.8463 30.3853C21.0057 30.3746 21.1437 30.4954 21.1544 30.6559C21.164 30.8152 21.0431 30.9532 20.8838 30.9639C20.7244 30.9746 20.5865 30.8537 20.5768 30.6944C20.5661 30.5339 20.6881 30.397 20.8463 30.3863V30.3853Z" fill="white"/>
<path d="M19.8991 30.32C19.9676 30.3157 20.0275 30.3682 20.0328 30.4377C20.0371 30.5072 19.9847 30.566 19.9152 30.5714C19.8467 30.5756 19.7858 30.5222 19.7815 30.4537C19.7772 30.3842 19.8286 30.3243 19.8991 30.32Z" fill="white"/>
<path d="M20.1877 28.4911C20.3759 28.4794 20.5385 28.6216 20.5513 28.8098C20.5631 28.9981 20.4208 29.1617 20.2315 29.1735C20.0433 29.1852 19.8807 29.0419 19.8679 28.8537C19.8561 28.6644 19.9984 28.5029 20.1877 28.4901V28.4911Z" fill="white"/>
<path d="M19.836 29.6719C19.8948 29.6676 19.9451 29.7125 19.9483 29.7703C19.9515 29.8291 19.9076 29.8794 19.8499 29.8826C19.7911 29.8858 19.7408 29.842 19.7376 29.7842C19.7333 29.7254 19.7782 29.6751 19.836 29.6719Z" fill="white"/>
<path d="M21.2226 29.6697C21.2803 29.6665 21.3306 29.7104 21.3349 29.7692C21.3392 29.827 21.2942 29.8783 21.2365 29.8815C21.1777 29.8858 21.1274 29.8409 21.1242 29.7831C21.121 29.7243 21.1648 29.674 21.2226 29.6708V29.6697Z" fill="white"/>
<path d="M18.5277 29.9671C18.7235 29.9542 18.8935 30.104 18.9063 30.2997C18.9192 30.4954 18.7705 30.6655 18.5737 30.6783C18.378 30.6911 18.2079 30.5425 18.1951 30.3457C18.1823 30.1489 18.332 29.9799 18.5277 29.9671Z" fill="white"/>
<path d="M19.0513 28.9221C19.1764 28.9136 19.2844 29.0098 19.293 29.135C19.3015 29.2612 19.2053 29.3692 19.0801 29.3778C18.9539 29.3863 18.8459 29.2911 18.8384 29.1649C18.8299 29.0398 18.9251 28.9307 19.0513 28.9232V28.9221Z" fill="white"/>
<path d="M20.834 27.4686C20.9506 27.4612 21.0522 27.5499 21.0586 27.6665C21.0661 27.7831 20.9774 27.8847 20.8608 27.8911C20.7442 27.8986 20.6437 27.8109 20.6362 27.6943C20.6287 27.5777 20.7175 27.4761 20.834 27.4686Z" fill="white"/>
<path d="M24.1786 26.9756C24.3069 26.967 24.4171 27.0644 24.4256 27.1927C24.4342 27.321 24.3369 27.4312 24.2085 27.4398C24.0802 27.4483 23.97 27.351 23.9615 27.2227C23.9529 27.0943 24.0502 26.9841 24.1786 26.9756Z" fill="white"/>
<path d="M22.7343 28.8152C22.8242 28.8098 22.9012 28.8772 22.9076 28.9681C22.9129 29.058 22.8456 29.135 22.7557 29.1414C22.6659 29.1467 22.5878 29.0794 22.5824 28.9895C22.576 28.8997 22.6445 28.8227 22.7343 28.8163V28.8152Z" fill="white"/>
<path d="M21.6701 28.1307C21.9032 28.1157 22.1053 28.2933 22.1203 28.5264C22.1353 28.7596 21.9578 28.9606 21.7246 28.9767C21.4904 28.9917 21.2904 28.8152 21.2743 28.581C21.2594 28.3478 21.4358 28.1467 21.669 28.1307H21.6701Z" fill="white"/>
<path d="M22.7739 27.2312C22.8873 27.2237 22.9846 27.3093 22.991 27.4226C22.9985 27.5349 22.913 27.6323 22.7996 27.6408C22.6873 27.6472 22.59 27.5617 22.5825 27.4494C22.575 27.3371 22.6606 27.2387 22.7739 27.2323V27.2312Z" fill="white"/>
<path d="M23.2013 29.9746C23.319 29.9671 23.4195 30.0558 23.427 30.1735C23.4345 30.2911 23.3457 30.3927 23.2281 30.4002C23.1104 30.4077 23.0088 30.319 23.0024 30.2013C22.9949 30.0837 23.0837 29.9831 23.2013 29.9746Z" fill="white"/>
</g>
<g style="mix-blend-mode:soft-light">
<path d="M22.0062 27.6751C22.0661 27.6708 22.1174 27.7157 22.1217 27.7767C22.126 27.8366 22.08 27.8879 22.0201 27.8922C21.9602 27.8965 21.9089 27.8505 21.9046 27.7906C21.9003 27.7307 21.9463 27.6793 22.0062 27.6751Z" fill="white"/>
<path d="M24.1725 25.4216C24.3319 25.4109 24.4698 25.5317 24.4805 25.6922C24.4901 25.8515 24.3693 25.9895 24.2099 25.9991C24.0506 26.0098 23.9126 25.889 23.9019 25.7285C23.8923 25.5692 24.0131 25.4312 24.1725 25.4216Z" fill="white"/>
<path d="M22.5456 26.5456C22.6151 26.5414 22.675 26.5938 22.6793 26.6633C22.6836 26.7328 22.6312 26.7927 22.5617 26.797C22.4922 26.8013 22.4333 26.7489 22.428 26.6804C22.4237 26.612 22.4761 26.551 22.5446 26.5467L22.5456 26.5456Z" fill="white"/>
<path d="M23.8799 24.1189C24.0682 24.1071 24.2308 24.2494 24.2436 24.4387C24.2564 24.6269 24.1131 24.7895 23.9249 24.8023C23.7366 24.8141 23.5741 24.6708 23.5612 24.4825C23.5495 24.2943 23.6917 24.1317 23.881 24.1189H23.8799Z" fill="white"/>
<path d="M22.4844 25.8975C22.5432 25.8943 22.5935 25.9381 22.5967 25.997C22.601 26.0547 22.5561 26.105 22.4983 26.1093C22.4395 26.1136 22.3892 26.0686 22.386 26.0109C22.3817 25.9521 22.4267 25.9018 22.4844 25.8986V25.8975Z" fill="white"/>
<path d="M25.6446 25.4986C25.7023 25.4943 25.7537 25.5392 25.7569 25.597C25.7601 25.6558 25.7173 25.7061 25.6585 25.7093C25.5997 25.7125 25.5494 25.6686 25.5462 25.6098C25.5419 25.5521 25.5868 25.5018 25.6446 25.4975V25.4986Z" fill="white"/>
<path d="M21.1741 26.1938C21.3709 26.1809 21.5399 26.3296 21.5527 26.5264C21.5656 26.7221 21.4169 26.8922 21.2201 26.905C21.0244 26.9178 20.8543 26.7681 20.8426 26.5724C20.8297 26.3756 20.9784 26.2066 21.1741 26.1938Z" fill="white"/>
<path d="M21.6996 25.1488C21.8247 25.1403 21.9327 25.2365 21.9413 25.3617C21.9498 25.4879 21.8547 25.5959 21.7295 25.6045C21.6033 25.612 21.4953 25.5168 21.4867 25.3916C21.4793 25.2654 21.5744 25.1574 21.6996 25.1488Z" fill="white"/>
<path d="M24.7569 23.1338C24.8735 23.1264 24.974 23.2151 24.9815 23.3317C24.989 23.4483 24.9002 23.5488 24.7836 23.5563C24.666 23.5638 24.5665 23.475 24.559 23.3585C24.5516 23.2419 24.6393 23.1403 24.7569 23.1338Z" fill="white"/>
<path d="M24.409 28.9425C24.5373 28.9339 24.6475 29.0312 24.656 29.1596C24.6646 29.2879 24.5672 29.3981 24.4389 29.4066C24.3116 29.4152 24.2004 29.3179 24.1929 29.1895C24.1844 29.0612 24.2817 28.951 24.41 28.9425H24.409Z" fill="white"/>
<path d="M24.7607 27.4783C24.8505 27.4729 24.9275 27.5403 24.9329 27.6302C24.9393 27.72 24.8708 27.797 24.781 27.8034C24.6911 27.8088 24.6141 27.7414 24.6077 27.6515C24.6024 27.5617 24.6698 27.4847 24.7596 27.4783H24.7607Z" fill="white"/>
<path d="M25.7296 23.2718C25.9628 23.2558 26.1638 23.4333 26.1799 23.6665C26.1949 23.8996 26.0173 24.1018 25.7842 24.1167C25.551 24.1317 25.3499 23.9552 25.3339 23.7221C25.3189 23.4879 25.4954 23.2868 25.7296 23.2718Z" fill="white"/>
<path d="M26.2681 22.1809C26.3814 22.1734 26.4777 22.259 26.4852 22.3723C26.4927 22.4846 26.4071 22.583 26.2937 22.5895C26.1814 22.5969 26.0841 22.5114 26.0766 22.398C26.0691 22.2857 26.1547 22.1884 26.2681 22.1798V22.1809Z" fill="white"/>
<path d="M25.8497 26.2012C25.9673 26.1938 26.0679 26.2825 26.0764 26.4002C26.0839 26.5178 25.9951 26.6184 25.8775 26.6269C25.7598 26.6344 25.6593 26.5456 25.6518 26.428C25.6443 26.3103 25.7331 26.2098 25.8507 26.2023L25.8497 26.2012Z" fill="white"/>
</g>
<g style="mix-blend-mode:soft-light">
<path d="M14.781 35.273C14.8387 35.2901 14.8708 35.35 14.8537 35.4078C14.8355 35.4645 14.7756 35.4976 14.7189 35.4794C14.6612 35.4623 14.6291 35.4024 14.6462 35.3447C14.6633 35.2869 14.7243 35.2548 14.781 35.272V35.273Z" fill="white"/>
<path d="M12.3426 34.9725C12.3993 34.9907 12.4324 35.0506 12.4142 35.1073C12.3971 35.165 12.3362 35.1971 12.2795 35.18C12.2217 35.1629 12.1896 35.103 12.2067 35.0452C12.2239 34.9875 12.2838 34.9554 12.3415 34.9725H12.3426Z" fill="white"/>
<path d="M17.0969 35.0998C17.2498 35.1458 17.3365 35.3083 17.2905 35.4613C17.2434 35.6142 17.0819 35.7008 16.929 35.6548C16.776 35.6078 16.6894 35.4463 16.7365 35.2944C16.7824 35.1415 16.9439 35.0548 17.0969 35.1008V35.0998Z" fill="white"/>
<path d="M15.6838 34.4046C15.7501 34.4249 15.7876 34.4955 15.7673 34.5618C15.7469 34.6281 15.6774 34.6655 15.6111 34.6452C15.5437 34.6249 15.5074 34.5554 15.5266 34.4891C15.5469 34.4217 15.6175 34.3842 15.6838 34.4046Z" fill="white"/>
<path d="M13.1432 35.5458C13.2095 35.5661 13.247 35.6356 13.2266 35.703C13.2063 35.7693 13.1368 35.8067 13.0705 35.7864C13.0031 35.7661 12.9657 35.6966 12.986 35.6303C13.0063 35.5639 13.0769 35.5254 13.1432 35.5458Z" fill="white"/>
<path d="M13.9132 34.6666C13.9796 34.6869 14.017 34.7564 13.9967 34.8238C13.9763 34.8901 13.9068 34.9276 13.8405 34.9072C13.7742 34.888 13.7368 34.8174 13.756 34.7511C13.7763 34.6837 13.8469 34.6474 13.9132 34.6666Z" fill="white"/>
<path d="M16.5987 32.7939C16.7794 32.8484 16.8811 33.0398 16.8265 33.2206C16.772 33.4014 16.5816 33.503 16.3998 33.4484C16.219 33.3939 16.1174 33.2024 16.172 33.0217C16.2265 32.8409 16.4179 32.7382 16.5987 32.7928V32.7939Z" fill="white"/>
<path d="M15.852 33.7757C15.9076 33.7928 15.9397 33.8516 15.9226 33.9073C15.9055 33.9629 15.8466 33.995 15.791 33.9778C15.7354 33.9607 15.7033 33.9019 15.7204 33.8452C15.7375 33.7896 15.7964 33.7575 15.852 33.7746V33.7757Z" fill="white"/>
<path d="M21.188 31.9543C21.2436 31.9714 21.2757 32.0302 21.2586 32.0858C21.2415 32.1415 21.1827 32.1735 21.127 32.1564C21.0704 32.1393 21.0393 32.0805 21.0565 32.0249C21.0736 31.9682 21.1324 31.9361 21.1891 31.9543H21.188Z" fill="white"/>
<path d="M22.1564 32.1661C22.212 32.1832 22.2441 32.242 22.227 32.2987C22.2109 32.3543 22.151 32.3864 22.0954 32.3693C22.0387 32.3532 22.0077 32.2933 22.0237 32.2377C22.0409 32.181 22.0997 32.15 22.1564 32.1671V32.1661Z" fill="white"/>
<path d="M17.1489 34.2602C17.2056 34.2773 17.2366 34.3361 17.2195 34.3917C17.2024 34.4484 17.1436 34.4794 17.088 34.4623C17.0313 34.4452 17.0003 34.3864 17.0174 34.3308C17.0345 34.2752 17.0933 34.2431 17.1489 34.2602Z" fill="white"/>
<path d="M18.227 30.9853C18.2826 31.0024 18.3147 31.0612 18.2976 31.1179C18.2805 31.1735 18.2216 31.2045 18.166 31.1885C18.1104 31.1714 18.0783 31.1126 18.0954 31.0559C18.1125 31.0003 18.1714 30.9682 18.227 30.9853Z" fill="white"/>
<path d="M19.9028 34.2602C19.9594 34.2773 19.9905 34.3361 19.9744 34.3917C19.9573 34.4484 19.8985 34.4794 19.8418 34.4623C19.7862 34.4452 19.7541 34.3864 19.7712 34.3308C19.7873 34.2752 19.8471 34.2431 19.9028 34.2602Z" fill="white"/>
<path d="M18.4418 34.8666C18.4985 34.8837 18.5295 34.9425 18.5124 34.9982C18.4953 35.0548 18.4365 35.0848 18.3809 35.0687C18.3252 35.0516 18.2932 34.9928 18.3103 34.9372C18.3274 34.8816 18.3862 34.8495 18.4418 34.8666Z" fill="white"/>
<path d="M14.5226 33.5939C14.7108 33.6506 14.8178 33.8495 14.7611 34.0377C14.7034 34.226 14.5055 34.3329 14.3162 34.2752C14.128 34.2185 14.0221 34.0195 14.0788 33.8313C14.1354 33.6431 14.3344 33.5361 14.5226 33.5939Z" fill="white"/>
<path d="M15.3802 32.7992C15.5011 32.8356 15.5695 32.9629 15.5321 33.0837C15.4957 33.2035 15.3684 33.272 15.2476 33.2356C15.1278 33.1992 15.0593 33.0719 15.0957 32.9511C15.1321 32.8302 15.2593 32.7629 15.3791 32.7992H15.3802Z" fill="white"/>
<path d="M15.6071 35.4944C15.728 35.5319 15.7965 35.6591 15.7601 35.7789C15.7237 35.8987 15.5964 35.9682 15.4756 35.9308C15.3547 35.8944 15.2863 35.7672 15.3237 35.6463C15.3601 35.5265 15.4874 35.4581 15.6071 35.4944Z" fill="white"/>
<path d="M17.5595 32.0644C17.6718 32.0987 17.7349 32.2163 17.7007 32.3286C17.6665 32.4409 17.5488 32.504 17.4365 32.4698C17.3253 32.4356 17.2611 32.3179 17.2954 32.2056C17.3296 32.0933 17.4472 32.0302 17.5585 32.0644H17.5595Z" fill="white"/>
<path d="M20.3078 31.3297C20.4319 31.3671 20.5003 31.4965 20.4629 31.6195C20.4254 31.7414 20.296 31.811 20.173 31.7746C20.05 31.7372 19.9805 31.6077 20.0179 31.4848C20.0554 31.3618 20.1848 31.2922 20.3078 31.3297Z" fill="white"/>
<path d="M22.6506 31.0976C22.7746 31.135 22.8431 31.2644 22.8056 31.3874C22.7682 31.5104 22.6388 31.5799 22.5158 31.5425C22.3928 31.5051 22.3233 31.3757 22.3607 31.2527C22.3982 31.1297 22.5276 31.0601 22.6506 31.0976Z" fill="white"/>
<path d="M20.6232 33.1607C20.7462 33.1981 20.8157 33.3276 20.7783 33.4505C20.7419 33.5735 20.6115 33.6431 20.4885 33.6056C20.3655 33.5682 20.2959 33.4388 20.3334 33.3158C20.3708 33.1928 20.5002 33.1233 20.6232 33.1607Z" fill="white"/>
<path d="M18.8657 33.9907C18.9523 34.0163 19.0004 34.1072 18.9748 34.1939C18.9491 34.2794 18.8582 34.3286 18.7726 34.3019C18.686 34.2762 18.6368 34.1853 18.6635 34.0987C18.6903 34.0121 18.7812 33.9639 18.8667 33.9896L18.8657 33.9907Z" fill="white"/>
<path d="M18.1093 32.9778C18.3328 33.0452 18.4601 33.2816 18.3916 33.5062C18.3243 33.7297 18.0879 33.857 17.8644 33.7885C17.6408 33.7211 17.5136 33.4848 17.582 33.2612C17.6505 33.0366 17.8857 32.9104 18.1103 32.9789L18.1093 32.9778Z" fill="white"/>
<path d="M19.4614 32.5222C19.5695 32.5553 19.6304 32.6698 19.5973 32.7767C19.5652 32.8848 19.4507 32.9468 19.3427 32.9136C19.2347 32.8805 19.1737 32.766 19.2058 32.658C19.239 32.55 19.3534 32.489 19.4614 32.5211V32.5222Z" fill="white"/>
<path d="M16.2998 30.5543C16.4121 30.5885 16.4763 30.7083 16.4421 30.8206C16.4079 30.9329 16.2891 30.997 16.1768 30.9628C16.0645 30.9286 16.0004 30.8099 16.0346 30.6976C16.0688 30.5853 16.1875 30.5222 16.2998 30.5553V30.5543Z" fill="white"/>
</g>
</svg>
