<svg width="577" height="219" viewBox="0 0 577 219" fill="none" xmlns="http://www.w3.org/2000/svg">
<path d="M1.02011 91.5504C0.220835 129.918 22.9603 208.811 120.312 217.444C242.002 228.235 388.269 78.961 386.471 31.0016C384.673 -16.9579 316.335 -0.172079 326.525 31.0016C336.716 62.1752 392.466 107.137 465 62.1752" stroke="#646464" stroke-width="2" stroke-dasharray="15 15"/>
<mask id="path-2-inside-1_0_1" fill="white">
<path d="M471.902 62.099C472.088 61.7687 472.285 61.4439 472.482 61.1246C472.482 61.0035 472.542 60.8879 472.663 60.8383C472.98 60.3374 473.308 59.8474 473.648 59.3575C473.659 59.341 473.664 59.33 473.681 59.3134C474.999 57.4142 476.471 55.5811 477.856 53.7479C477.79 53.7149 477.73 53.6543 477.697 53.5662C477.308 52.5753 476.92 51.5844 476.531 50.5935C476.4 50.588 476.263 50.5164 476.203 50.3623C475.377 48.2704 474.54 46.1785 473.719 44.0811C473.013 42.2755 472.274 40.4093 472.258 38.4385C472.252 38.0531 472.291 37.6678 472.351 37.2879C472.449 35.3557 473.287 33.506 475.18 32.8014C475.213 32.7683 475.251 32.7463 475.295 32.7298C475.36 32.6307 475.475 32.5646 475.623 32.5922C478.988 33.1096 481.577 35.0144 483.388 37.877C484.126 39.044 484.816 40.2441 485.473 41.4662C485.631 41.268 485.812 41.0699 486.02 40.8882C486.031 40.8772 486.047 40.8662 486.064 40.8552C487.442 39.6331 489.73 38.8458 491.306 39.5505C493.527 40.5414 493.002 43.5801 492.203 45.4739C501.456 45.0445 510.709 44.538 519.913 43.4976C520.345 43.448 520.783 43.393 521.215 43.3379C520.646 38.2458 517.976 33.6271 517.746 28.4799C517.615 25.5237 518.517 20.8005 521.861 19.9967C521.866 19.9912 521.872 19.9912 521.877 19.9857C521.97 19.9252 522.058 19.9141 522.134 19.9417C522.26 19.9197 522.386 19.9031 522.512 19.8921C524.252 19.7545 526.435 20.3435 527.858 21.3565C529.593 22.5951 530.682 24.6264 531.874 26.344C535.152 31.0508 538.682 35.5759 542.424 39.9138C542.457 39.9524 542.485 39.9964 542.495 40.0404C544.126 39.8367 545.757 39.6661 547.398 39.5505C555.535 38.9615 564.711 39.6661 570.462 46.1785C571.77 47.6538 572.908 49.2668 574.068 50.8633C575.081 52.2615 576.531 53.7644 576.897 55.5095C577.133 56.6325 576.947 57.7335 576.509 58.7574C576.443 58.9776 576.367 59.1978 576.268 59.418C575.048 62.1926 572.323 64.2239 569.669 65.4901C563.546 68.4132 556.121 68.5784 549.516 67.582C548.75 71.7602 548.077 75.8835 548.06 80.2214C548.049 84.4052 547.924 88.7542 546.162 92.6297C545.603 93.9289 544.843 95.118 543.661 95.9657C542.485 96.808 541.127 97.0667 539.809 96.7915C539.546 96.7695 539.283 96.7309 539.021 96.6649C538.939 96.8245 538.753 96.9346 538.55 96.8245C537.932 96.4887 537.385 96.0979 536.887 95.6685C536.427 95.3437 535.995 94.9583 535.595 94.5124C533.319 91.9691 532.454 88.5395 531.962 85.242C531.344 81.1077 530.851 77.1717 529.5 73.2411C528.575 71.4905 527.53 69.7784 526.769 67.9673C526.506 67.3452 526.266 66.6681 526.074 65.9745C512.684 64.5212 498.605 65.1102 486.321 58.7354C484.794 60.5411 483.147 62.2421 481.347 63.789C479.776 65.1432 477.812 66.8168 475.667 67.2076C475.038 67.3728 474.392 67.3893 473.752 67.1856C473.735 67.1801 473.719 67.1801 473.702 67.1746C471.109 66.5855 470.731 64.1854 471.902 62.099ZM473.057 37.6347C473.106 39.0826 473.533 40.613 473.921 41.7965C474.863 44.6151 475.951 47.3841 477.144 50.1036C477.172 50.1036 477.199 50.0981 477.232 50.1036C479.038 50.4504 480.86 50.5495 482.687 50.3128C483.541 50.2027 484.701 50.0375 485.768 49.7127C485.724 49.6797 485.686 49.6356 485.659 49.5751C484.296 46.5804 482.939 43.5912 481.577 40.5964C480.313 37.8219 478.923 34.7997 475.968 33.6326C474.053 34.2051 473.237 35.8236 473.057 37.6347ZM483.426 39.2642C482.02 36.8751 480.313 34.9979 477.949 33.9739C479.443 35.108 480.504 36.7539 481.369 38.5211C483.109 42.0828 484.668 45.7436 486.31 49.3494C486.337 49.4099 486.343 49.465 486.337 49.5145C487.021 49.2558 487.623 48.9035 488.044 48.4411C486.687 45.2922 485.166 42.2149 483.426 39.2642ZM486.419 41.4332C486.217 41.6204 486.042 41.8075 485.916 42.0002C485.888 42.0443 485.85 42.0773 485.812 42.1048C486.43 43.2884 487.021 44.4885 487.579 45.6996C487.607 45.6886 487.639 45.6776 487.672 45.6776C488.925 45.6225 490.184 45.5619 491.437 45.5069C491.765 44.8188 492.083 43.8994 492.176 42.9966C492.165 42.9911 492.154 42.9911 492.148 42.9856C491.284 42.3635 490.337 41.9947 489.308 41.7525C488.482 41.5543 487.256 41.1579 486.419 41.4332ZM490.851 40.123C489.96 39.7322 488.603 40.0625 487.497 40.6735C488.165 40.7396 488.849 40.9322 489.44 41.0754C490.43 41.3121 491.344 41.6644 492.192 42.1984C492.132 41.3066 491.76 40.5249 490.851 40.123ZM529.91 24.6925C528.449 22.5896 526.955 21.3014 524.416 20.7564C523.448 20.5472 522.627 20.5747 521.932 20.7784C518.933 22.9694 518.424 26.0797 518.906 29.4488C522.2 26.889 526.156 25.4467 530.331 25.2925C530.189 25.0944 530.052 24.8907 529.91 24.6925ZM530.78 25.9421C530.747 25.9531 530.72 25.9641 530.682 25.9641C526.386 26.0577 522.37 27.5386 519.026 30.2195C519.174 31.0343 519.371 31.8655 519.601 32.6913C520.695 31.2489 523.021 30.3351 524.476 29.68C526.868 28.6065 529.407 27.968 532.006 27.6982C531.595 27.1147 531.185 26.5312 530.78 25.9421ZM533.729 30.1094C533.303 29.5259 532.881 28.9368 532.46 28.3423C530.233 28.5405 528.055 29.0139 525.965 29.8121C524.881 30.225 523.831 30.715 522.824 31.282C521.916 31.7939 520.356 32.5206 519.858 33.5721C520.482 35.686 521.253 37.7944 521.823 39.7432C526.594 36.787 532.039 35.2181 537.653 35.2125C536.307 33.539 534.999 31.838 533.729 30.1094ZM538.184 35.8842C538.156 35.8897 538.129 35.9007 538.096 35.9007C532.378 35.8291 526.846 37.387 522.009 40.4368C522.145 40.9322 522.26 41.4222 522.359 41.8901C527.738 39.5064 533.445 38.0421 539.305 37.5412C539.333 37.4861 539.382 37.4421 539.437 37.409C539.015 36.9026 538.599 36.3906 538.184 35.8842ZM540.591 39.2918C540.394 38.8734 540.197 38.3559 539.776 38.1357C539.732 38.1687 539.672 38.1963 539.601 38.2018C533.664 38.6807 527.913 40.156 522.479 42.5782C522.512 42.7764 522.534 42.9691 522.556 43.1563C528.788 42.314 534.972 41.0534 541.204 40.2111C540.936 39.9579 540.755 39.6386 540.591 39.2918ZM571.912 49.0741C571.179 48.0942 570.413 47.1749 569.609 46.3326C569.532 46.4923 569.445 46.6409 569.363 46.7951C569.379 46.8116 569.401 46.8226 569.417 46.8446C570.577 48.4025 571.612 50.0485 572.525 51.7661C572.837 51.5624 573.149 51.3587 573.456 51.155C572.947 50.4614 572.432 49.7678 571.912 49.0741ZM568.98 47.4061C568.126 48.6558 566.955 49.6412 565.56 50.3238C564.624 50.7807 563.633 51.089 562.621 51.2982C562.189 51.3862 561.658 51.4083 561.133 51.4413C561.012 51.4633 560.898 51.4908 560.783 51.5239C559.519 51.667 559.3 52.5093 560.131 54.0507C560.427 54.1718 560.722 54.2874 561.012 54.4085C562.441 54.8984 564 55.0581 565.499 54.8984C567.913 54.6452 569.959 53.4341 571.945 52.1404C571.075 50.4889 570.085 48.9145 568.98 47.4061ZM567.409 65.6882C568.788 65.1983 570.134 64.5597 571.365 63.756C568.662 65.1157 565.576 65.7047 562.61 66.035C558.348 66.514 554.058 66.503 549.79 66.1176C549.74 66.3819 549.691 66.6461 549.642 66.9103C555.48 67.8022 561.795 67.681 567.409 65.6882ZM536.941 94.2317C537.757 95.1455 538.775 95.8006 539.853 96.0593C542.096 96.2025 544.29 94.7326 545.428 92.3875C546.807 89.5469 546.878 86.1283 546.928 82.9409C542.32 83.084 537.691 83.2877 533.319 84.8236C533.461 86.1448 533.631 87.4605 533.905 88.7487C534.599 90.791 535.584 92.7123 536.941 94.2317ZM533.133 83.0565C533.171 83.4088 533.21 83.7667 533.242 84.119C537.647 82.5996 542.309 82.3904 546.939 82.2473C546.944 81.9445 546.95 81.6417 546.961 81.3445C546.966 81.1298 546.971 80.9151 546.977 80.7004C542.266 80.5848 537.445 80.7224 533.084 82.6602C533.1 82.7978 533.117 82.9244 533.133 83.0565ZM531.513 74.5788C532.219 77.001 532.695 79.4673 533.007 81.961C537.417 80.0728 542.227 79.8966 546.999 80.0177C547.07 77.2267 547.158 74.4357 547.535 71.6667C547.513 71.6667 547.491 71.6722 547.464 71.6667C541.899 70.4115 536.197 70.6537 530.775 72.3603C531.043 73.0925 531.294 73.8301 531.513 74.5788ZM530.517 71.7217C536.055 69.9711 541.91 69.7124 547.595 70.9951C547.612 71.0006 547.617 71.0061 547.634 71.0116C547.77 70.1858 547.956 69.3601 548.153 68.5343C542.036 67.0039 535.426 66.8388 529.686 69.6794C529.97 70.362 530.249 71.0391 530.517 71.7217ZM528.126 65.8864C528.531 66.9599 528.98 68.0113 529.423 69.0628C535.3 66.1837 542.041 66.3048 548.312 67.8737C548.832 65.7598 549.368 63.6459 549.352 61.4879C549.335 59.4566 548.777 57.6124 547.103 56.6931C546.796 56.583 546.463 56.4949 546.09 56.4398C545.948 56.4178 542.474 56.0545 540.909 56.093C537.374 56.1866 530.348 57.4032 530.304 57.4142C526.731 58.6694 527.037 63.0073 528.126 65.8864ZM526.408 62.8311C526.37 62.3742 526.359 61.9118 526.381 61.4494C526.331 61.9118 526.342 62.3742 526.408 62.8311ZM525.888 65.2643C525.833 65.0111 525.784 64.7579 525.74 64.5047C512.816 64.6533 500.088 62.6274 487.787 58.7079C499.634 64.3946 513.089 63.8936 525.888 65.2643ZM525.653 63.8165C525.615 63.4037 525.593 62.9963 525.604 62.5889C525.56 62.1926 525.554 61.7907 525.598 61.3888C525.861 58.9886 527.59 57.6729 529.598 56.8582C529.631 56.8307 529.675 56.8087 529.735 56.7922C529.751 56.7866 529.768 56.7866 529.79 56.7811C529.91 56.7371 530.03 56.6986 530.151 56.6545C530.184 56.583 530.884 56.3903 531.152 56.3352C531.672 56.1866 532.881 55.9499 532.958 55.9994C535.513 55.5811 538.091 55.3609 540.69 55.3609C540.75 55.3609 540.799 55.3719 540.843 55.3939C542.014 55.3609 543.19 55.3664 544.361 55.4214C545.861 55.493 547.431 55.6581 548.531 56.7591C550.408 58.3776 550.621 61.5595 550.178 64.0037C550.09 64.4826 550.003 64.9561 549.915 65.4295C554.484 65.8479 559.108 65.8259 563.661 65.2038C567.765 64.6423 572.607 63.4037 575.125 59.7924C575.13 59.7814 575.141 59.7704 575.146 59.7593C575.064 59.6658 575.031 59.5391 575.108 59.4015C576.12 57.4583 574.413 55.0691 573.012 53.7699C572.69 53.4726 573.144 52.9607 573.467 53.2579C574.534 54.2433 575.65 55.7077 575.984 57.2325C576.027 55.4049 575.13 53.6158 573.806 51.8321C573.795 51.8211 573.789 51.8046 573.784 51.7936C571.787 53.6598 569.357 54.9315 566.665 55.4434C564.307 55.8893 560.624 56.0159 558.616 54.4195C556.826 53.0047 558.118 51.2927 559.934 50.9844C560.142 50.9513 560.35 50.9128 560.564 50.8798C560.58 50.8743 560.591 50.8688 560.608 50.8688C562.134 50.4504 563.535 50.2192 564.952 49.4265C566.227 48.7108 569.089 46.9217 568.23 45.0885C568.213 45.0555 568.208 45.0225 568.203 44.9894C566.38 43.3985 564.312 42.1709 561.806 41.4167C554.041 39.0881 545.658 40.1781 537.817 41.4772C529.587 42.8425 521.396 44.1417 513.078 44.8683C504.695 45.6005 496.285 45.9803 487.88 46.3602C488.203 47.0758 488.52 47.797 488.832 48.5181C488.942 48.7659 488.734 48.9475 488.526 48.953C487.426 50.1476 485.484 50.4889 483.973 50.7917C481.774 51.2376 479.557 51.2101 477.363 50.8192C477.659 51.5679 477.949 52.3166 478.244 53.0598C478.37 52.8506 478.545 52.6854 478.759 52.5643C478.813 52.5038 478.879 52.4707 478.945 52.4707C479.306 52.3111 479.738 52.2285 480.198 52.2065C482.129 51.7275 484.181 51.9257 486.003 52.8341C486.266 52.9662 488.488 54.3865 488.548 55.1241C488.739 55.2012 488.882 55.4654 488.723 55.6912C488.209 56.4068 487.678 57.1059 487.131 57.7886C499.596 61.8457 512.52 63.9652 525.653 63.8165ZM558.643 52.3276C558.266 52.724 558.331 53.1038 558.605 53.4341C558.457 53.0432 558.484 52.6689 558.643 52.3276ZM481.615 62.6825C482.135 62.1926 482.638 61.6971 483.12 61.2182C483.694 60.6457 484.356 59.7869 485.002 58.884C483.897 60.1667 482.753 61.4164 481.571 62.6274C481.587 62.6495 481.598 62.666 481.615 62.6825ZM481.128 62.1045C482.113 61.0916 483.076 60.0511 484.006 58.9886C484.685 58.2179 487.114 56.0104 487.059 54.8434C486.173 53.9296 484.444 53.4726 483.426 53.2359C483.021 53.1423 481.363 52.8285 480.126 52.9166C479.754 53.0212 479.388 53.1533 479.027 53.313L474.775 59.1758C477.232 59.2199 479.486 60.2658 481.128 62.1045ZM480.657 62.5944C479.032 60.7447 476.745 59.7704 474.277 59.8694C474.184 60.0016 474.085 60.1337 473.992 60.2603C473.856 60.4475 473.702 60.6456 473.549 60.8493C475.826 61.0695 477.85 62.2586 479.142 64.1799C479.7 63.6294 480.214 63.0679 480.657 62.5944ZM472.564 65.936C472.679 65.8864 472.816 65.8864 472.936 65.9855C473.205 66.2057 473.478 66.3708 473.757 66.481C474.594 66.6516 475.563 66.5415 476.329 66.2938C477.133 65.9194 477.91 65.3139 478.633 64.6533C477.374 62.732 475.355 61.5705 473.057 61.4989C472.488 62.2751 471.962 63.1339 471.891 64.0092C471.82 64.9175 472.099 65.5341 472.564 65.936Z"/>
</mask>
<path d="M471.902 62.099C472.088 61.7687 472.285 61.4439 472.482 61.1246C472.482 61.0035 472.542 60.8879 472.663 60.8383C472.98 60.3374 473.308 59.8474 473.648 59.3575C473.659 59.341 473.664 59.33 473.681 59.3134C474.999 57.4142 476.471 55.5811 477.856 53.7479C477.79 53.7149 477.73 53.6543 477.697 53.5662C477.308 52.5753 476.92 51.5844 476.531 50.5935C476.4 50.588 476.263 50.5164 476.203 50.3623C475.377 48.2704 474.54 46.1785 473.719 44.0811C473.013 42.2755 472.274 40.4093 472.258 38.4385C472.252 38.0531 472.291 37.6678 472.351 37.2879C472.449 35.3557 473.287 33.506 475.18 32.8014C475.213 32.7683 475.251 32.7463 475.295 32.7298C475.36 32.6307 475.475 32.5646 475.623 32.5922C478.988 33.1096 481.577 35.0144 483.388 37.877C484.126 39.044 484.816 40.2441 485.473 41.4662C485.631 41.268 485.812 41.0699 486.02 40.8882C486.031 40.8772 486.047 40.8662 486.064 40.8552C487.442 39.6331 489.73 38.8458 491.306 39.5505C493.527 40.5414 493.002 43.5801 492.203 45.4739C501.456 45.0445 510.709 44.538 519.913 43.4976C520.345 43.448 520.783 43.393 521.215 43.3379C520.646 38.2458 517.976 33.6271 517.746 28.4799C517.615 25.5237 518.517 20.8005 521.861 19.9967C521.866 19.9912 521.872 19.9912 521.877 19.9857C521.97 19.9252 522.058 19.9141 522.134 19.9417C522.26 19.9197 522.386 19.9031 522.512 19.8921C524.252 19.7545 526.435 20.3435 527.858 21.3565C529.593 22.5951 530.682 24.6264 531.874 26.344C535.152 31.0508 538.682 35.5759 542.424 39.9138C542.457 39.9524 542.485 39.9964 542.495 40.0404C544.126 39.8367 545.757 39.6661 547.398 39.5505C555.535 38.9615 564.711 39.6661 570.462 46.1785C571.77 47.6538 572.908 49.2668 574.068 50.8633C575.081 52.2615 576.531 53.7644 576.897 55.5095C577.133 56.6325 576.947 57.7335 576.509 58.7574C576.443 58.9776 576.367 59.1978 576.268 59.418C575.048 62.1926 572.323 64.2239 569.669 65.4901C563.546 68.4132 556.121 68.5784 549.516 67.582C548.75 71.7602 548.077 75.8835 548.06 80.2214C548.049 84.4052 547.924 88.7542 546.162 92.6297C545.603 93.9289 544.843 95.118 543.661 95.9657C542.485 96.808 541.127 97.0667 539.809 96.7915C539.546 96.7695 539.283 96.7309 539.021 96.6649C538.939 96.8245 538.753 96.9346 538.55 96.8245C537.932 96.4887 537.385 96.0979 536.887 95.6685C536.427 95.3437 535.995 94.9583 535.595 94.5124C533.319 91.9691 532.454 88.5395 531.962 85.242C531.344 81.1077 530.851 77.1717 529.5 73.2411C528.575 71.4905 527.53 69.7784 526.769 67.9673C526.506 67.3452 526.266 66.6681 526.074 65.9745C512.684 64.5212 498.605 65.1102 486.321 58.7354C484.794 60.5411 483.147 62.2421 481.347 63.789C479.776 65.1432 477.812 66.8168 475.667 67.2076C475.038 67.3728 474.392 67.3893 473.752 67.1856C473.735 67.1801 473.719 67.1801 473.702 67.1746C471.109 66.5855 470.731 64.1854 471.902 62.099ZM473.057 37.6347C473.106 39.0826 473.533 40.613 473.921 41.7965C474.863 44.6151 475.951 47.3841 477.144 50.1036C477.172 50.1036 477.199 50.0981 477.232 50.1036C479.038 50.4504 480.86 50.5495 482.687 50.3128C483.541 50.2027 484.701 50.0375 485.768 49.7127C485.724 49.6797 485.686 49.6356 485.659 49.5751C484.296 46.5804 482.939 43.5912 481.577 40.5964C480.313 37.8219 478.923 34.7997 475.968 33.6326C474.053 34.2051 473.237 35.8236 473.057 37.6347ZM483.426 39.2642C482.02 36.8751 480.313 34.9979 477.949 33.9739C479.443 35.108 480.504 36.7539 481.369 38.5211C483.109 42.0828 484.668 45.7436 486.31 49.3494C486.337 49.4099 486.343 49.465 486.337 49.5145C487.021 49.2558 487.623 48.9035 488.044 48.4411C486.687 45.2922 485.166 42.2149 483.426 39.2642ZM486.419 41.4332C486.217 41.6204 486.042 41.8075 485.916 42.0002C485.888 42.0443 485.85 42.0773 485.812 42.1048C486.43 43.2884 487.021 44.4885 487.579 45.6996C487.607 45.6886 487.639 45.6776 487.672 45.6776C488.925 45.6225 490.184 45.5619 491.437 45.5069C491.765 44.8188 492.083 43.8994 492.176 42.9966C492.165 42.9911 492.154 42.9911 492.148 42.9856C491.284 42.3635 490.337 41.9947 489.308 41.7525C488.482 41.5543 487.256 41.1579 486.419 41.4332ZM490.851 40.123C489.96 39.7322 488.603 40.0625 487.497 40.6735C488.165 40.7396 488.849 40.9322 489.44 41.0754C490.43 41.3121 491.344 41.6644 492.192 42.1984C492.132 41.3066 491.76 40.5249 490.851 40.123ZM529.91 24.6925C528.449 22.5896 526.955 21.3014 524.416 20.7564C523.448 20.5472 522.627 20.5747 521.932 20.7784C518.933 22.9694 518.424 26.0797 518.906 29.4488C522.2 26.889 526.156 25.4467 530.331 25.2925C530.189 25.0944 530.052 24.8907 529.91 24.6925ZM530.78 25.9421C530.747 25.9531 530.72 25.9641 530.682 25.9641C526.386 26.0577 522.37 27.5386 519.026 30.2195C519.174 31.0343 519.371 31.8655 519.601 32.6913C520.695 31.2489 523.021 30.3351 524.476 29.68C526.868 28.6065 529.407 27.968 532.006 27.6982C531.595 27.1147 531.185 26.5312 530.78 25.9421ZM533.729 30.1094C533.303 29.5259 532.881 28.9368 532.46 28.3423C530.233 28.5405 528.055 29.0139 525.965 29.8121C524.881 30.225 523.831 30.715 522.824 31.282C521.916 31.7939 520.356 32.5206 519.858 33.5721C520.482 35.686 521.253 37.7944 521.823 39.7432C526.594 36.787 532.039 35.2181 537.653 35.2125C536.307 33.539 534.999 31.838 533.729 30.1094ZM538.184 35.8842C538.156 35.8897 538.129 35.9007 538.096 35.9007C532.378 35.8291 526.846 37.387 522.009 40.4368C522.145 40.9322 522.26 41.4222 522.359 41.8901C527.738 39.5064 533.445 38.0421 539.305 37.5412C539.333 37.4861 539.382 37.4421 539.437 37.409C539.015 36.9026 538.599 36.3906 538.184 35.8842ZM540.591 39.2918C540.394 38.8734 540.197 38.3559 539.776 38.1357C539.732 38.1687 539.672 38.1963 539.601 38.2018C533.664 38.6807 527.913 40.156 522.479 42.5782C522.512 42.7764 522.534 42.9691 522.556 43.1563C528.788 42.314 534.972 41.0534 541.204 40.2111C540.936 39.9579 540.755 39.6386 540.591 39.2918ZM571.912 49.0741C571.179 48.0942 570.413 47.1749 569.609 46.3326C569.532 46.4923 569.445 46.6409 569.363 46.7951C569.379 46.8116 569.401 46.8226 569.417 46.8446C570.577 48.4025 571.612 50.0485 572.525 51.7661C572.837 51.5624 573.149 51.3587 573.456 51.155C572.947 50.4614 572.432 49.7678 571.912 49.0741ZM568.98 47.4061C568.126 48.6558 566.955 49.6412 565.56 50.3238C564.624 50.7807 563.633 51.089 562.621 51.2982C562.189 51.3862 561.658 51.4083 561.133 51.4413C561.012 51.4633 560.898 51.4908 560.783 51.5239C559.519 51.667 559.3 52.5093 560.131 54.0507C560.427 54.1718 560.722 54.2874 561.012 54.4085C562.441 54.8984 564 55.0581 565.499 54.8984C567.913 54.6452 569.959 53.4341 571.945 52.1404C571.075 50.4889 570.085 48.9145 568.98 47.4061ZM567.409 65.6882C568.788 65.1983 570.134 64.5597 571.365 63.756C568.662 65.1157 565.576 65.7047 562.61 66.035C558.348 66.514 554.058 66.503 549.79 66.1176C549.74 66.3819 549.691 66.6461 549.642 66.9103C555.48 67.8022 561.795 67.681 567.409 65.6882ZM536.941 94.2317C537.757 95.1455 538.775 95.8006 539.853 96.0593C542.096 96.2025 544.29 94.7326 545.428 92.3875C546.807 89.5469 546.878 86.1283 546.928 82.9409C542.32 83.084 537.691 83.2877 533.319 84.8236C533.461 86.1448 533.631 87.4605 533.905 88.7487C534.599 90.791 535.584 92.7123 536.941 94.2317ZM533.133 83.0565C533.171 83.4088 533.21 83.7667 533.242 84.119C537.647 82.5996 542.309 82.3904 546.939 82.2473C546.944 81.9445 546.95 81.6417 546.961 81.3445C546.966 81.1298 546.971 80.9151 546.977 80.7004C542.266 80.5848 537.445 80.7224 533.084 82.6602C533.1 82.7978 533.117 82.9244 533.133 83.0565ZM531.513 74.5788C532.219 77.001 532.695 79.4673 533.007 81.961C537.417 80.0728 542.227 79.8966 546.999 80.0177C547.07 77.2267 547.158 74.4357 547.535 71.6667C547.513 71.6667 547.491 71.6722 547.464 71.6667C541.899 70.4115 536.197 70.6537 530.775 72.3603C531.043 73.0925 531.294 73.8301 531.513 74.5788ZM530.517 71.7217C536.055 69.9711 541.91 69.7124 547.595 70.9951C547.612 71.0006 547.617 71.0061 547.634 71.0116C547.77 70.1858 547.956 69.3601 548.153 68.5343C542.036 67.0039 535.426 66.8388 529.686 69.6794C529.97 70.362 530.249 71.0391 530.517 71.7217ZM528.126 65.8864C528.531 66.9599 528.98 68.0113 529.423 69.0628C535.3 66.1837 542.041 66.3048 548.312 67.8737C548.832 65.7598 549.368 63.6459 549.352 61.4879C549.335 59.4566 548.777 57.6124 547.103 56.6931C546.796 56.583 546.463 56.4949 546.09 56.4398C545.948 56.4178 542.474 56.0545 540.909 56.093C537.374 56.1866 530.348 57.4032 530.304 57.4142C526.731 58.6694 527.037 63.0073 528.126 65.8864ZM526.408 62.8311C526.37 62.3742 526.359 61.9118 526.381 61.4494C526.331 61.9118 526.342 62.3742 526.408 62.8311ZM525.888 65.2643C525.833 65.0111 525.784 64.7579 525.74 64.5047C512.816 64.6533 500.088 62.6274 487.787 58.7079C499.634 64.3946 513.089 63.8936 525.888 65.2643ZM525.653 63.8165C525.615 63.4037 525.593 62.9963 525.604 62.5889C525.56 62.1926 525.554 61.7907 525.598 61.3888C525.861 58.9886 527.59 57.6729 529.598 56.8582C529.631 56.8307 529.675 56.8087 529.735 56.7922C529.751 56.7866 529.768 56.7866 529.79 56.7811C529.91 56.7371 530.03 56.6986 530.151 56.6545C530.184 56.583 530.884 56.3903 531.152 56.3352C531.672 56.1866 532.881 55.9499 532.958 55.9994C535.513 55.5811 538.091 55.3609 540.69 55.3609C540.75 55.3609 540.799 55.3719 540.843 55.3939C542.014 55.3609 543.19 55.3664 544.361 55.4214C545.861 55.493 547.431 55.6581 548.531 56.7591C550.408 58.3776 550.621 61.5595 550.178 64.0037C550.09 64.4826 550.003 64.9561 549.915 65.4295C554.484 65.8479 559.108 65.8259 563.661 65.2038C567.765 64.6423 572.607 63.4037 575.125 59.7924C575.13 59.7814 575.141 59.7704 575.146 59.7593C575.064 59.6658 575.031 59.5391 575.108 59.4015C576.12 57.4583 574.413 55.0691 573.012 53.7699C572.69 53.4726 573.144 52.9607 573.467 53.2579C574.534 54.2433 575.65 55.7077 575.984 57.2325C576.027 55.4049 575.13 53.6158 573.806 51.8321C573.795 51.8211 573.789 51.8046 573.784 51.7936C571.787 53.6598 569.357 54.9315 566.665 55.4434C564.307 55.8893 560.624 56.0159 558.616 54.4195C556.826 53.0047 558.118 51.2927 559.934 50.9844C560.142 50.9513 560.35 50.9128 560.564 50.8798C560.58 50.8743 560.591 50.8688 560.608 50.8688C562.134 50.4504 563.535 50.2192 564.952 49.4265C566.227 48.7108 569.089 46.9217 568.23 45.0885C568.213 45.0555 568.208 45.0225 568.203 44.9894C566.38 43.3985 564.312 42.1709 561.806 41.4167C554.041 39.0881 545.658 40.1781 537.817 41.4772C529.587 42.8425 521.396 44.1417 513.078 44.8683C504.695 45.6005 496.285 45.9803 487.88 46.3602C488.203 47.0758 488.52 47.797 488.832 48.5181C488.942 48.7659 488.734 48.9475 488.526 48.953C487.426 50.1476 485.484 50.4889 483.973 50.7917C481.774 51.2376 479.557 51.2101 477.363 50.8192C477.659 51.5679 477.949 52.3166 478.244 53.0598C478.37 52.8506 478.545 52.6854 478.759 52.5643C478.813 52.5038 478.879 52.4707 478.945 52.4707C479.306 52.3111 479.738 52.2285 480.198 52.2065C482.129 51.7275 484.181 51.9257 486.003 52.8341C486.266 52.9662 488.488 54.3865 488.548 55.1241C488.739 55.2012 488.882 55.4654 488.723 55.6912C488.209 56.4068 487.678 57.1059 487.131 57.7886C499.596 61.8457 512.52 63.9652 525.653 63.8165ZM558.643 52.3276C558.266 52.724 558.331 53.1038 558.605 53.4341C558.457 53.0432 558.484 52.6689 558.643 52.3276ZM481.615 62.6825C482.135 62.1926 482.638 61.6971 483.12 61.2182C483.694 60.6457 484.356 59.7869 485.002 58.884C483.897 60.1667 482.753 61.4164 481.571 62.6274C481.587 62.6495 481.598 62.666 481.615 62.6825ZM481.128 62.1045C482.113 61.0916 483.076 60.0511 484.006 58.9886C484.685 58.2179 487.114 56.0104 487.059 54.8434C486.173 53.9296 484.444 53.4726 483.426 53.2359C483.021 53.1423 481.363 52.8285 480.126 52.9166C479.754 53.0212 479.388 53.1533 479.027 53.313L474.775 59.1758C477.232 59.2199 479.486 60.2658 481.128 62.1045ZM480.657 62.5944C479.032 60.7447 476.745 59.7704 474.277 59.8694C474.184 60.0016 474.085 60.1337 473.992 60.2603C473.856 60.4475 473.702 60.6456 473.549 60.8493C475.826 61.0695 477.85 62.2586 479.142 64.1799C479.7 63.6294 480.214 63.0679 480.657 62.5944ZM472.564 65.936C472.679 65.8864 472.816 65.8864 472.936 65.9855C473.205 66.2057 473.478 66.3708 473.757 66.481C474.594 66.6516 475.563 66.5415 476.329 66.2938C477.133 65.9194 477.91 65.3139 478.633 64.6533C477.374 62.732 475.355 61.5705 473.057 61.4989C472.488 62.2751 471.962 63.1339 471.891 64.0092C471.82 64.9175 472.099 65.5341 472.564 65.936Z" fill="black" stroke="black" stroke-width="2" mask="url(#path-2-inside-1_0_1)"/>
<path d="M549.838 49.7109C549.826 49.7082 549.815 49.7053 549.805 49.7023C549.523 49.6537 549.314 49.7215 549.144 49.8514C548.952 49.9973 548.782 50.2451 548.661 50.5762C548.411 51.2559 548.434 52.0822 548.657 52.5421C548.774 52.7783 548.943 52.9785 549.149 53.1381L549.284 53.2432C549.121 53.0325 549.018 52.7853 548.956 52.5544C548.83 52.0847 548.837 51.5555 548.928 51.1282L548.936 51.0905L548.95 51.0545C549.023 50.861 549.131 50.5934 549.268 50.3427L549.288 50.3066L549.314 50.2741C549.508 50.0255 549.755 49.8375 550.029 49.7163L549.994 49.7228H549.948C549.905 49.7228 549.868 49.7175 549.838 49.7109ZM551.702 49.8788L551.833 49.7047L551.702 49.8788Z" fill="black" stroke="black"/>
<path d="M541.956 49.6263L541.889 49.6485L541.818 49.651C541.64 49.6572 541.473 49.7091 541.322 49.8018C541.493 49.748 541.68 49.7348 541.839 49.7381C542.085 49.7431 542.363 49.7895 542.631 49.8871C542.745 49.9287 542.863 49.9823 542.977 50.0491C542.934 49.998 542.888 49.9497 542.841 49.9048C542.54 49.6217 542.236 49.5345 541.956 49.6263ZM542.032 53.1028L542.059 53.4371C542.059 53.4371 542.058 53.4372 542.058 53.4372C542.057 53.4373 542.057 53.4373 542.056 53.4373L542.031 53.1027C542.032 53.1027 542.032 53.1027 542.032 53.1028Z" fill="black" stroke="black"/>
<path d="M533.921 50.1696L533.83 49.845C533.233 50.0894 532.805 50.6459 532.87 51.2614L535.739 51.2077C535.741 51.2035 535.74 51.2041 535.739 51.2078L535.696 51.2936C535.694 51.2273 535.691 51.1636 535.685 51.1027M533.921 50.1696L533.831 49.8448C533.967 49.789 534.113 49.7495 534.263 49.7293C534.642 49.6786 534.984 49.7675 535.231 49.991C535.441 50.1821 535.636 50.5223 535.685 51.1025L535.497 51.133L535.685 51.1027M533.921 50.1696C533.513 50.2833 532.791 51.2474 533.057 51.9238L533.921 50.1696ZM535.685 51.1027L535.991 51.0536C535.991 51.0535 535.991 51.0534 535.991 51.0533L535.685 51.1027ZM534.351 52.7705L534.364 52.5808L534.351 52.7705Z" fill="black" stroke="black"/>
<mask id="path-6-inside-2_0_1" fill="white">
<path d="M525.795 50.098C525.932 50.076 526.074 50.087 526.222 50.1586C526.933 50.3127 527.431 51.1495 527.459 51.9147C527.497 52.9496 526.846 54.0231 525.751 54.1167C523.108 54.3369 523.721 49.9054 525.795 50.098ZM526.019 50.8357C525.565 50.7091 525.035 50.9403 525.029 50.9458C524.777 51.2321 523.995 53.0928 525.571 53.4286C525.615 53.4286 525.658 53.4451 525.702 53.4286C528.126 52.6524 526.523 51.0945 526.019 50.8357Z"/>
</mask>
<path d="M525.795 50.098C525.932 50.076 526.074 50.087 526.222 50.1586C526.933 50.3127 527.431 51.1495 527.459 51.9147C527.497 52.9496 526.846 54.0231 525.751 54.1167C523.108 54.3369 523.721 49.9054 525.795 50.098ZM526.019 50.8357C525.565 50.7091 525.035 50.9403 525.029 50.9458C524.777 51.2321 523.995 53.0928 525.571 53.4286C525.615 53.4286 525.658 53.4451 525.702 53.4286C528.126 52.6524 526.523 51.0945 526.019 50.8357Z" fill="black"/>
<path d="M525.795 50.098L525.954 51.0853L525.829 51.1055L525.703 51.0938L525.795 50.098ZM526.222 50.1586L526.01 51.1359L525.893 51.1106L525.786 51.0586L526.222 50.1586ZM527.459 51.9147L526.459 51.9517L526.459 51.9504L527.459 51.9147ZM525.751 54.1167L525.837 55.1131L525.834 55.1132L525.751 54.1167ZM526.019 50.8357L526.288 49.8725L526.386 49.8998L526.477 49.9463L526.019 50.8357ZM525.029 50.9458L524.278 50.2855L524.298 50.2625L524.32 50.2408L525.029 50.9458ZM525.571 53.4286V54.4286H525.465L525.362 54.4066L525.571 53.4286ZM525.702 53.4286L525.349 52.4929L525.373 52.484L525.397 52.4762L525.702 53.4286ZM525.636 49.1108C525.946 49.0609 526.3 49.0855 526.658 49.2586L525.786 51.0586C525.81 51.0701 525.842 51.0807 525.88 51.0854C525.916 51.0899 525.942 51.0873 525.954 51.0853L525.636 49.1108ZM526.434 49.1813C527.113 49.3285 527.613 49.7803 527.928 50.2515C528.245 50.726 528.437 51.3059 528.458 51.879L526.459 51.9504C526.452 51.7583 526.382 51.5372 526.266 51.3635C526.147 51.1864 526.042 51.1429 526.01 51.1359L526.434 49.1813ZM528.458 51.8777C528.509 53.252 527.636 54.9592 525.837 55.1131L525.666 53.1203C525.882 53.1019 526.068 52.9928 526.218 52.7844C526.377 52.5642 526.471 52.258 526.459 51.9517L528.458 51.8777ZM525.834 55.1132C524.859 55.1945 524.053 54.8332 523.547 54.1488C523.081 53.5181 522.954 52.7285 523.007 52.0402C523.061 51.3458 523.308 50.617 523.761 50.0511C524.228 49.467 524.96 49.0162 525.888 49.1023L525.703 51.0938C525.593 51.0836 525.471 51.1144 525.323 51.3002C525.16 51.5041 525.03 51.8334 525.001 52.1952C524.973 52.5631 525.058 52.8281 525.156 52.9604C525.214 53.0389 525.322 53.149 525.668 53.1202L525.834 55.1132ZM525.751 51.799C525.759 51.8013 525.747 51.7968 525.709 51.7981C525.671 51.7994 525.625 51.8057 525.575 51.817C525.526 51.828 525.484 51.8413 525.457 51.8508C525.444 51.8555 525.437 51.8583 525.438 51.8581C525.438 51.8579 525.439 51.8575 525.441 51.8566C525.443 51.8558 525.447 51.8542 525.452 51.8518C525.456 51.8501 525.467 51.8449 525.482 51.8373C525.488 51.8341 525.505 51.8256 525.526 51.8138C525.536 51.8081 525.555 51.7965 525.58 51.7805C525.592 51.7724 525.611 51.7594 525.634 51.7424C525.643 51.7349 525.665 51.7178 525.676 51.7082C525.69 51.696 525.721 51.6674 525.738 51.6508L524.32 50.2408C524.397 50.1636 524.47 50.1169 524.479 50.1108C524.503 50.0946 524.524 50.0829 524.534 50.077C524.555 50.0648 524.573 50.0559 524.58 50.052C524.598 50.0432 524.612 50.0364 524.62 50.0328C524.638 50.0246 524.656 50.017 524.672 50.0106C524.704 49.9971 524.743 49.982 524.788 49.9662C524.876 49.9348 524.996 49.8971 525.137 49.8655C525.398 49.807 525.832 49.7452 526.288 49.8725L525.751 51.799ZM525.78 51.6062C525.822 51.5586 525.824 51.5426 525.796 51.5942C525.776 51.633 525.748 51.6914 525.72 51.7646C525.662 51.9168 525.621 52.0829 525.613 52.224C525.605 52.3691 525.635 52.4107 525.629 52.4012C525.606 52.365 525.601 52.4126 525.779 52.4505L525.362 54.4066C524.752 54.2766 524.255 53.9657 523.943 53.4772C523.648 53.0155 523.594 52.5111 523.616 52.1133C523.638 51.7114 523.742 51.3377 523.852 51.05C523.951 50.7915 524.098 50.4904 524.278 50.2855L525.78 51.6062ZM525.571 52.4286C525.641 52.4286 525.698 52.4351 525.721 52.4378C525.727 52.4385 525.733 52.4392 525.736 52.4397C525.741 52.4403 525.741 52.4403 525.743 52.4405C525.745 52.4408 525.739 52.44 525.73 52.4392C525.698 52.4361 525.539 52.4213 525.349 52.4929L526.055 54.3642C525.821 54.4524 525.619 54.4376 525.543 54.4304C525.518 54.428 525.465 54.4215 525.487 54.424C525.487 54.4241 525.522 54.4286 525.571 54.4286V52.4286ZM525.397 52.4762C525.905 52.3137 526.023 52.1628 526.028 52.1563C526.028 52.1561 526.027 52.1578 526.025 52.1615C526.023 52.1653 526.02 52.1704 526.018 52.1769C526.013 52.1905 526.009 52.2053 526.007 52.2196C526.004 52.2486 526.01 52.2563 526.003 52.234C525.985 52.1737 525.921 52.0598 525.795 51.9264C525.738 51.8658 525.68 51.8138 525.63 51.7746C525.576 51.7317 525.551 51.7192 525.562 51.7251L526.477 49.9463C526.73 50.0763 527.013 50.302 527.251 50.5553C527.492 50.811 527.772 51.1837 527.914 51.6422C528.067 52.1376 528.057 52.7481 527.663 53.3084C527.302 53.8204 526.712 54.1553 526.007 54.3809L525.397 52.4762Z" fill="black" mask="url(#path-6-inside-2_0_1)"/>
<mask id="path-8-inside-3_0_1" fill="white">
<path d="M518.244 54.4801C517.22 54.6948 516.214 53.9902 516.017 52.9717C515.749 51.5955 517.051 50.7973 517.188 50.7918C517.22 50.7918 519.759 50.0926 519.924 52.0744C520.011 53.1479 519.316 54.2544 518.244 54.4801ZM519.147 52.0854C518.939 51.557 518.222 51.3478 517.45 51.4689C516.903 51.7166 516.515 52.2781 516.706 52.9167C516.892 53.5553 517.549 53.9737 518.2 53.7865C518.829 53.6103 519.404 52.746 519.147 52.0854Z"/>
</mask>
<path d="M518.244 54.4801C517.22 54.6948 516.214 53.9902 516.017 52.9717C515.749 51.5955 517.051 50.7973 517.188 50.7918C517.22 50.7918 519.759 50.0926 519.924 52.0744C520.011 53.1479 519.316 54.2544 518.244 54.4801ZM519.147 52.0854C518.939 51.557 518.222 51.3478 517.45 51.4689C516.903 51.7166 516.515 52.2781 516.706 52.9167C516.892 53.5553 517.549 53.9737 518.2 53.7865C518.829 53.6103 519.404 52.746 519.147 52.0854Z" fill="black"/>
<path d="M518.244 54.4801L518.45 55.4587L518.449 55.4588L518.244 54.4801ZM516.017 52.9717L516.998 52.7805L516.998 52.7818L516.017 52.9717ZM517.188 50.7918L517.147 49.7926L517.168 49.7918H517.188V50.7918ZM519.924 52.0744L520.92 51.9919L520.92 51.9931L519.924 52.0744ZM519.147 52.0854L520.077 51.7193L520.078 51.7226L519.147 52.0854ZM517.45 51.4689L517.038 50.5579L517.161 50.502L517.295 50.481L517.45 51.4689ZM516.706 52.9167L517.664 52.6294L517.666 52.637L516.706 52.9167ZM518.2 53.7865L517.924 52.8254L517.93 52.8235L518.2 53.7865ZM518.449 55.4588C516.854 55.7935 515.333 54.7027 515.035 53.1616L516.998 52.7818C517.094 53.2776 517.587 53.5961 518.038 53.5014L518.449 55.4588ZM515.035 53.163C514.827 52.0971 515.242 51.2577 515.681 50.7288C515.899 50.4669 516.133 50.2657 516.331 50.1251C516.431 50.0548 516.531 49.9928 516.626 49.9433C516.673 49.9189 516.73 49.8918 516.792 49.8678C516.827 49.8546 516.967 49.7998 517.147 49.7926L517.228 51.791C517.325 51.787 517.398 51.7692 517.428 51.7612C517.464 51.7516 517.491 51.7418 517.506 51.7363C517.521 51.7303 517.533 51.7253 517.538 51.7227C517.544 51.7199 517.548 51.7181 517.548 51.7179C517.549 51.7175 517.543 51.7205 517.532 51.7277C517.52 51.7347 517.505 51.7445 517.487 51.7573C517.412 51.8108 517.311 51.8963 517.22 52.0066C517.04 52.2223 516.938 52.4701 516.998 52.7805L515.035 53.163ZM517.188 49.7918C517.107 49.7918 517.044 49.8022 517.041 49.8026C517.023 49.8054 517.009 49.808 517.003 49.8091C516.996 49.8103 516.991 49.8114 516.989 49.8119C516.986 49.8124 516.985 49.8128 516.984 49.8129C516.984 49.8131 516.984 49.8129 516.988 49.8121C516.991 49.8113 516.995 49.8105 517.001 49.8092C517.023 49.8041 517.059 49.7961 517.103 49.7868C517.192 49.7682 517.317 49.7443 517.466 49.7233C517.758 49.6822 518.174 49.647 518.616 49.696C519.052 49.7442 519.598 49.8834 520.063 50.2627C520.559 50.6668 520.859 51.2575 520.92 51.9919L518.927 52.157C518.906 51.9005 518.827 51.8354 518.8 51.8132C518.742 51.7662 518.62 51.7086 518.396 51.6839C518.18 51.6599 517.945 51.6756 517.746 51.7037C517.65 51.7172 517.569 51.7325 517.513 51.7444C517.484 51.7503 517.462 51.7554 517.443 51.7596C517.436 51.7612 517.422 51.7644 517.412 51.7667C517.407 51.7678 517.394 51.7706 517.379 51.7735C517.372 51.7748 517.356 51.7777 517.337 51.7806C517.333 51.7812 517.268 51.7918 517.188 51.7918V49.7918ZM520.92 51.9931C521.042 53.4842 520.094 55.1127 518.45 55.4587L518.038 53.5015C518.539 53.3961 518.98 52.8116 518.927 52.1557L520.92 51.9931ZM518.216 52.4516C518.249 52.5362 518.298 52.518 518.186 52.4797C518.071 52.4403 517.868 52.4155 517.605 52.4568L517.295 50.481C517.804 50.4012 518.345 50.4204 518.834 50.5874C519.325 50.7556 519.836 51.1062 520.077 51.7193L518.216 52.4516ZM517.863 52.3799C517.759 52.4268 517.697 52.4927 517.672 52.5373C517.661 52.5571 517.658 52.5704 517.657 52.5783C517.656 52.5848 517.655 52.6002 517.664 52.6294L515.748 53.204C515.371 51.9469 516.18 50.9462 517.038 50.5579L517.863 52.3799ZM517.666 52.637C517.688 52.7103 517.736 52.7698 517.793 52.8034C517.844 52.834 517.886 52.8362 517.924 52.8254L518.476 54.7476C517.232 55.1053 516.067 54.2977 515.746 53.1964L517.666 52.637ZM517.93 52.8235C517.925 52.8249 517.955 52.8165 518.007 52.7733C518.056 52.7317 518.106 52.6737 518.146 52.6076C518.185 52.541 518.202 52.4852 518.208 52.4512C518.213 52.4196 518.205 52.4236 518.215 52.4482L520.078 51.7226C520.355 52.4322 520.154 53.142 519.866 53.6277C519.578 54.1123 519.09 54.5759 518.47 54.7495L517.93 52.8235Z" fill="black" mask="url(#path-8-inside-3_0_1)"/>
<mask id="path-10-inside-4_0_1" fill="white">
<path d="M491.349 69.5638C497.812 74.1495 505.166 77.2047 512.963 78.548C513.385 78.6195 513.204 79.2691 512.788 79.1976C504.936 77.8488 497.522 74.766 491.01 70.1473C490.665 69.8941 490.994 69.3106 491.349 69.5638Z"/>
</mask>
<path d="M491.349 69.5638C497.812 74.1495 505.166 77.2047 512.963 78.548C513.385 78.6195 513.204 79.2691 512.788 79.1976C504.936 77.8488 497.522 74.766 491.01 70.1473C490.665 69.8941 490.994 69.3106 491.349 69.5638Z" fill="black"/>
<path d="M491.349 69.5638L490.771 70.3793L490.769 70.3784L491.349 69.5638ZM512.963 78.548L512.796 79.5339L512.794 79.5335L512.963 78.548ZM512.788 79.1976L512.958 78.212L512.958 78.212L512.788 79.1976ZM491.01 70.1473L490.432 70.963L490.425 70.9582L490.418 70.9533L491.01 70.1473ZM491.928 68.7483C498.269 73.2475 505.483 76.2446 513.133 77.5625L512.794 79.5335C504.849 78.1649 497.355 75.0515 490.771 70.3793L491.928 68.7483ZM513.131 77.5621C513.522 77.6285 513.871 77.8613 514.062 78.2333C514.235 78.5703 514.228 78.9215 514.154 79.1905C514.014 79.7045 513.47 80.3295 512.619 80.1831L512.958 78.212C512.778 78.181 512.59 78.2312 512.448 78.3382C512.323 78.4323 512.256 78.552 512.225 78.6624C512.196 78.7689 512.181 78.9489 512.283 79.1461C512.402 79.3784 512.615 79.5032 512.796 79.5338L513.131 77.5621ZM512.619 80.1831C504.619 78.809 497.065 75.6679 490.432 70.963L491.589 69.3317C497.979 73.8641 505.253 76.8887 512.958 78.212L512.619 80.1831ZM490.418 70.9533C489.74 70.4555 489.777 69.6449 490.049 69.1691C490.19 68.9228 490.439 68.6683 490.805 68.5562C491.207 68.4335 491.613 68.524 491.929 68.7492L490.769 70.3784C490.908 70.477 491.14 70.5454 491.39 70.4689C491.606 70.4029 491.728 70.2626 491.785 70.1622C491.89 69.9782 491.935 69.586 491.602 69.3414L490.418 70.9533Z" fill="black" mask="url(#path-10-inside-4_0_1)"/>
<mask id="path-12-inside-5_0_1" fill="white">
<path d="M491.639 75.3219C495.437 78.0303 499.699 79.8084 504.285 80.5957C504.706 80.6672 504.526 81.3168 504.11 81.2452C499.47 80.447 495.141 78.6414 491.3 75.9054C490.955 75.6522 491.289 75.0686 491.639 75.3219Z"/>
</mask>
<path d="M491.639 75.3219C495.437 78.0303 499.699 79.8084 504.285 80.5957C504.706 80.6672 504.526 81.3168 504.11 81.2452C499.47 80.447 495.141 78.6414 491.3 75.9054C490.955 75.6522 491.289 75.0686 491.639 75.3219Z" fill="black"/>
<path d="M491.639 75.3219L491.059 76.136L491.053 76.1322L491.639 75.3219ZM504.285 80.5957L504.117 81.5815L504.116 81.5812L504.285 80.5957ZM504.11 81.2452L504.279 80.2597L504.279 80.2597L504.11 81.2452ZM491.3 75.9054L490.72 76.7199L490.714 76.7157L490.708 76.7113L491.3 75.9054ZM492.22 74.5077C495.895 77.1291 500.017 78.8484 504.454 79.6101L504.116 81.5812C499.381 80.7685 494.978 78.9316 491.059 76.136L492.22 74.5077ZM504.452 79.6098C504.844 79.6762 505.193 79.909 505.384 80.281C505.556 80.6179 505.549 80.9692 505.476 81.2382C505.335 81.7522 504.791 82.3772 503.94 82.2308L504.279 80.2597C504.099 80.2287 503.911 80.2789 503.769 80.3859C503.645 80.4799 503.577 80.5997 503.547 80.7101C503.518 80.8166 503.503 80.9966 503.604 81.1938C503.723 81.4261 503.937 81.5509 504.117 81.5815L504.452 79.6098ZM503.94 82.2308C499.152 81.407 494.683 79.5427 490.72 76.7199L491.88 75.0909C495.6 77.7401 499.788 79.487 504.279 80.2597L503.94 82.2308ZM490.708 76.7113C490.025 76.2096 490.071 75.3951 490.343 74.9241C490.484 74.68 490.732 74.4266 491.097 74.3146C491.498 74.1914 491.907 74.2816 492.225 74.5115L491.053 76.1322C491.196 76.2355 491.432 76.3037 491.683 76.2266C491.898 76.1607 492.019 76.0215 492.075 75.9233C492.134 75.8216 492.17 75.6891 492.149 75.5374C492.126 75.3659 492.033 75.203 491.892 75.0995L490.708 76.7113Z" fill="black" mask="url(#path-12-inside-5_0_1)"/>
<mask id="path-14-inside-6_0_1" fill="white">
<path d="M487.415 76.9845C489.905 79.1755 492.756 80.7389 495.929 81.6638C496.34 81.7849 496.165 82.429 495.754 82.3134C492.471 81.3555 489.516 79.726 486.944 77.4635C486.622 77.1772 487.092 76.7038 487.415 76.9845Z"/>
</mask>
<path d="M487.415 76.9845C489.905 79.1755 492.756 80.7389 495.929 81.6638C496.34 81.7849 496.165 82.429 495.754 82.3134C492.471 81.3555 489.516 79.726 486.944 77.4635C486.622 77.1772 487.092 76.7038 487.415 76.9845Z" fill="black"/>
<path d="M487.415 76.9845L488.071 76.2299L488.076 76.2338L487.415 76.9845ZM495.929 81.6638L496.209 80.7037L496.212 80.7047L495.92v9 81.6638ZM495.754 82.3134L495.483 83.276L495.474 83.2734L495.754 82.3134ZM486.944 77.4635L486.284 78.2143L486.281 78.2117L486.944 77.4635ZM488.076 76.2338C490.455 78.3277 493.176 79.8198 496.209 80.7037L495.65 82.6239C492.336 81.6581 489.355 80.0234 486.754 77.7352L488.076 76.2338ZM496.212 80.7047C496.588 80.8156 496.884 81.0732 497.041 81.4137C497.187 81.7303 497.189 82.063 497.115 82.3387C497.04 82.6137 496.869 82.9046 496.575 83.1048C496.256 83.3213 495.862 83.3826 495.483 83.2759L496.025 81.3508C495.852 81.302 495.634 81.3261 495.45 81.4506C495.291 81.5588 495.215 81.7027 495.184 81.816C495.153 81.93 495.149 82.0862 495.225 82.2516C495.312 82.4408 495.476 82.5726 495.646 82.6229L496.212 80.7047ZM495.474 83.2734C492.049 82.2742 488.965 80.5729 486.284 78.2143L487.605 76.7127C490.068 78.8791 492.893 80.4368 496.034 81.3534L495.474 83.2734ZM486.281 78.2117C485.988 77.9523 485.819 77.5827 485.837 77.1816C485.855 76.8127 486.026 76.5114 486.226 76.3085C486.618 75.9124 487.415 75.6595 488.071 76.23L486.759 77.7391C486.891 77.8544 487.08 77.9157 487.27 77.8946C487.438 77.876 487.565 77.7996 487.649 77.7143C487.732 77.6304 487.826 77.4835 487.835 77.2752C487.847 77.0345 487.739 76.8315 487.608 76.7152L486.281 78.2117Z" fill="black" mask="url(#path-14-inside-6_0_1)"/>
<path d="M465.668 25.1314L465.667 25.1324C465.657 25.1447 465.655 25.1503 465.656 25.1488C465.656 25.1477 465.656 25.1475 465.656 25.15C465.657 25.1531 465.658 25.1603 465.663 25.1702C465.663 25.1712 465.664 25.1722 465.664 25.1732C470.587 19.4059 479.366 17.9768 485.832 21.9418C485.832 21.9407 485.833 21.9395 485.834 21.9384C485.839 21.9289 485.843 21.9196 485.844 21.9121C485.843 21.9111 485.841 21.9101 485.84 21.909C479.412 17.959 470.558 19.3583 465.668 25.1314Z" fill="black" stroke="black"/>
<path d="M468.756 14.4441L468.756 14.4441L468.753 14.4458C468.748 14.4491 468.745 14.4518 468.743 14.4536C468.743 14.4565 468.743 14.4614 468.745 14.4683C468.745 14.4727 468.747 14.4772 468.748 14.4818C472.209 12.1711 476.406 11.6586 480.316 13.0635C480.316 13.0605 480.316 13.0576 480.316 13.0547C480.315 13.0434 480.313 13.0364 480.312 13.0333C480.312 13.0326 480.311 13.0322 480.311 13.0319C480.31 13.0307 480.305 13.0275 480.294 13.0236L480.466 12.5539L480.295 13.0237C476.424 11.6144 472.175 12.1436 468.756 14.4441Z" fill="black" stroke="black"/>
</svg>
