<svg width="75" height="35" viewBox="0 0 75 35" fill="none" xmlns="http://www.w3.org/2000/svg">
<path d="M17.8554 18.2161L30.0433 11.1834C30.7247 10.7893 31.3218 10.2648 31.8006 9.63993C32.2793 9.01504 32.6303 8.30196 32.8334 7.54143C33.0366 6.7809 33.0879 5.9878 32.9846 5.20741C32.8812 4.42703 32.6252 3.67464 32.2311 2.99321C31.8369 2.31178 31.3124 1.71465 30.6875 1.23592C30.0626 0.757187 29.3496 0.406225 28.589 0.203072C27.0531 -0.207216 25.417 0.00946137 24.0408 0.805437L2.9944 12.9536L17.8554 18.2161Z" fill="#EA4335"/>
<path d="M27.0329 34.6356C28.3523 34.637 29.6353 34.2031 30.683 33.4011C31.7306 32.5991 32.4845 31.4739 32.8275 30.1999C33.1706 28.9259 33.0838 27.5743 32.5806 26.3546C32.0773 25.135 31.1857 24.1154 30.0441 23.4541L8.98971 11.302C7.6135 10.5071 5.97787 10.2914 4.44265 10.7024C2.90743 11.1135 1.59837 12.1175 0.803447 13.4937C0.00852585 14.8699 -0.20714 16.5056 0.203894 18.0408C0.614927 19.576 1.61899 20.8851 2.9952 21.68L24.0376 33.8281C24.9474 34.3567 25.9807 34.6352 27.0329 34.6356Z" fill="#4285F4"/>
<path d="M47.9669 34.6356C49.0166 34.6382 50.0485 34.3637 50.9582 33.84L72.0006 21.6919L57.3306 16.314L44.9637 23.4541C43.8207 24.1142 42.9275 25.1332 42.4227 26.3528C41.918 27.5725 41.8299 28.9247 42.1722 30.1995C42.5145 31.4743 43.2679 32.6005 44.3157 33.4034C45.3635 34.2062 46.6469 34.6407 47.9669 34.6396V34.6356Z" fill="#FBBC04"/>
<path d="M68.996 24.135C70.3164 24.138 71.6008 23.7046 72.6494 22.9023C73.6981 22.0999 74.4523 20.9736 74.7948 19.6984C75.1373 18.4233 75.0489 17.0706 74.5434 15.8509C74.0378 14.6311 73.1434 13.6125 71.9993 12.9535L50.9568 0.805399C49.5806 0.0104784 47.945 -0.205186 46.4098 0.205847C44.8746 0.61688 43.5655 1.62094 42.7706 2.99715C41.9757 4.37336 41.76 6.00899 42.171 7.54421C42.5821 9.07943 43.5861 10.3885 44.9623 11.1834L66.0048 23.3315C66.9137 23.858 67.9456 24.1352 68.996 24.135Z" fill="#0F9D58"/>
</svg>
