<svg width="51" height="39" viewBox="0 0 51 39" fill="none" xmlns="http://www.w3.org/2000/svg">
<path d="M5.45166 0.97876C2.88393 0.97876 0.783429 3.0752 0.77124 5.64293C0.77124 5.64293 0.77124 5.647 0.77124 5.65106C0.77124 5.65512 0.77124 5.65512 0.77124 5.65918V33.7417C0.77124 36.3135 2.87987 38.4222 5.45166 38.4222H46.0153C48.5871 38.4222 50.6958 36.3135 50.6958 33.7417V5.65918C50.6958 5.65512 50.6958 5.65512 50.6958 5.65106C50.6958 5.647 50.6958 5.64293 50.6958 5.64293C50.6836 3.0752 48.5831 0.97876 46.0153 0.97876H5.45166ZM8.15754 3.05895H43.3135L25.7335 15.3126L8.15754 3.05895ZM4.69597 3.18084L25.7335 17.8478L46.7751 3.18084C47.8396 3.5018 48.6075 4.46876 48.6156 5.647C48.6115 5.86639 48.3881 6.30518 48.063 6.65865C47.7339 7.01618 47.413 7.23964 47.413 7.23964L47.4089 7.24777L25.7335 22.5892L4.0581 7.24777L4.05404 7.23964C4.05404 7.23964 3.73307 7.01618 3.40398 6.65865C3.07895 6.30518 2.85549 5.86639 2.85143 5.647C2.85956 4.46876 3.62744 3.5018 4.69597 3.18084ZM2.85143 8.93792L2.85956 8.94605L2.86768 8.95011V8.95417L5.97171 11.1481V36.342H5.45166C4.00528 36.342 2.85143 35.1881 2.85143 33.7417V8.93792ZM48.6156 8.93792V33.7417C48.6156 35.1881 47.4617 36.342 46.0153 36.342H45.4953V11.1481L48.5993 8.95417V8.95011L48.6156 8.93792ZM8.0519 12.6189L25.7335 25.1325L43.4151 12.6189V36.342H8.0519V12.6189Z" fill="#F1F1F1"/>
</svg>
