<svg width="27" height="27" viewBox="0 0 27 27" fill="none" xmlns="http://www.w3.org/2000/svg">
<path fill-rule="evenodd" clip-rule="evenodd" d="M8.30825 0.915394C9.69026 0.851782 10.1309 0.837646 13.6513 0.837646C17.1717 0.837646 17.6124 0.85296 18.9932 0.915394C20.374 0.977828 21.3166 1.19811 22.1413 1.51735C23.0049 1.84366 23.7884 2.35373 24.4364 3.01341C25.0962 3.66013 25.6052 4.44232 25.9304 5.30697C26.2508 6.13157 26.47 7.07397 26.5336 8.45223C26.5972 9.83638 26.6113 10.277 26.6113 13.7956C26.6113 17.3155 26.596 17.7561 26.5336 19.1379C26.4711 20.5161 26.2508 21.4585 25.9304 22.2831C25.6052 23.1479 25.0953 23.9314 24.4364 24.579C23.7884 25.2387 23.0049 25.7476 22.1413 26.0727C21.3166 26.3932 20.374 26.6123 18.9956 26.6759C17.6124 26.7395 17.1717 26.7536 13.6513 26.7536C10.1309 26.7536 9.69026 26.7383 8.30825 26.6759C6.92977 26.6134 5.98722 26.3932 5.16249 26.0727C4.29761 25.7476 3.514 25.2378 2.86621 24.579C2.20688 23.9319 1.69665 23.1488 1.3711 22.2843C1.05181 21.4597 0.832666 20.5173 0.769044 19.139C0.705422 17.7549 0.691284 17.3143 0.691284 13.7956C0.691284 10.2758 0.706601 9.8352 0.769044 8.45459C0.831488 7.07397 1.05181 6.13157 1.3711 5.30697C1.69713 4.44242 2.20775 3.65932 2.86739 3.01223C3.51426 2.35314 4.29708 1.843 5.16132 1.51735C5.98604 1.19811 6.92859 0.979006 8.30707 0.915394H8.30825ZM18.8883 3.24783C17.5216 3.1854 17.1116 3.17244 13.6513 3.17244C10.191 3.17244 9.78098 3.1854 8.41428 3.24783C7.15009 3.30555 6.46439 3.51642 6.00725 3.69429C5.40284 3.92989 4.97045 4.20908 4.51685 4.66261C4.08686 5.08086 3.75595 5.59003 3.54838 6.15278C3.37048 6.60984 3.15958 7.29544 3.10185 8.55943C3.03941 9.92591 3.02645 10.3359 3.02645 13.7956C3.02645 17.2554 3.03941 17.6654 3.10185 19.0318C3.15958 20.2958 3.37048 20.9814 3.54838 21.4385C3.75574 22.0004 4.08681 22.5105 4.51685 22.9287C4.9351 23.3586 5.44526 23.6896 6.00725 23.897C6.46439 24.0749 7.15009 24.2857 8.41428 24.3434C9.78098 24.4059 10.1898 24.4188 13.6513 24.4188C17.1128 24.4188 17.5216 24.4059 18.8883 24.3434C20.1525 24.2857 20.8382 24.0749 21.2954 23.897C21.8998 23.6614 22.3322 23.3822 22.7858 22.9287C23.2158 22.5105 23.5469 22.0004 23.7542 21.4385C23.9321 20.9814 24.143 20.2958 24.2008 19.0318C24.2632 17.6654 24.2762 17.2554 24.2762 13.7956C24.2762 10.3359 24.2632 9.92591 24.2008 8.55943C24.143 7.29544 23.9321 6.60984 23.7542 6.15278C23.5186 5.54846 23.2394 5.11614 22.7858 4.66261C22.3674 4.23272 21.8582 3.90187 21.2954 3.69429C20.8382 3.51642 20.1525 3.30555 18.8883 3.24783ZM11.996 17.7902C12.9204 18.175 13.9498 18.2269 14.9084 17.9372C15.8669 17.6474 16.695 17.0339 17.2514 16.2014C17.8077 15.3689 18.0578 14.3692 17.9588 13.3729C17.8598 12.3765 17.418 11.4455 16.7087 10.7387C16.2566 10.2869 15.7099 9.941 15.1079 9.72582C14.506 9.51064 13.8639 9.43157 13.2277 9.49431C12.5916 9.55704 11.9773 9.76002 11.429 10.0886C10.8808 10.4172 10.4122 10.8633 10.057 11.3947C9.70187 11.9261 9.46898 12.5296 9.37511 13.1618C9.28124 13.794 9.32873 14.4392 9.51416 15.0508C9.6996 15.6625 10.0184 16.2254 10.4475 16.6991C10.8766 17.1728 11.4055 17.5454 11.996 17.7902ZM8.94093 9.08599C9.55951 8.46752 10.2939 7.97691 11.1021 7.64219C11.9103 7.30748 12.7765 7.1352 13.6513 7.1352C14.5261 7.1352 15.3923 7.30748 16.2006 7.64219C17.0088 7.97691 17.7431 8.46752 18.3617 9.08599C18.9803 9.70447 19.471 10.4387 19.8057 11.2468C20.1405 12.0549 20.3128 12.921 20.3128 13.7956C20.3128 14.6703 20.1405 15.5364 19.8057 16.3445C19.471 17.1526 18.9803 17.8868 18.3617 18.5053C17.1124 19.7543 15.418 20.4561 13.6513 20.4561C11.8846 20.4561 10.1902 19.7543 8.94093 18.5053C7.69166 17.2562 6.98983 15.5621 6.98983 13.7956C6.98983 12.0292 7.69166 10.3351 8.94093 9.08599ZM21.7902 8.1271C21.9435 7.98253 22.0662 7.80867 22.1511 7.61582C22.236 7.42297 22.2813 7.21506 22.2844 7.00439C22.2874 6.79372 22.2482 6.58457 22.169 6.38933C22.0898 6.19409 21.9722 6.01673 21.8232 5.86775C21.6741 5.71876 21.4968 5.60119 21.3015 5.52198C21.1062 5.44277 20.897 5.40354 20.6863 5.40661C20.4756 5.40968 20.2677 5.45499 20.0748 5.53986C19.8819 5.62473 19.708 5.74742 19.5634 5.90069C19.2822 6.19875 19.1283 6.59467 19.1342 7.00439C19.1402 7.41411 19.3056 7.80537 19.5954 8.09511C19.8852 8.38486 20.2766 8.55027 20.6863 8.55625C21.0961 8.56222 21.4921 8.40828 21.7902 8.1271Z" fill="black"/>
</svg>
