<svg width="26" height="27" viewBox="0 0 26 27" fill="none" xmlns="http://www.w3.org/2000/svg">
<path fill-rule="evenodd" clip-rule="evenodd" d="M9.97741 9.58681H14.6565V11.9171C15.3305 10.5769 17.059 9.37267 19.6555 9.37267C24.6332 9.37267 25.8149 12.0406 25.8149 16.9356V26.0012H20.7755V18.0504C20.7755 15.2628 20.1015 13.6907 18.3856 13.6907C16.0058 13.6907 15.0168 15.3849 15.0168 18.0491V26.0012H9.97741V9.58681ZM1.33615 25.7871H6.37552V9.37267H1.33615V25.7871ZM7.09741 4.02044C7.0976 4.44277 7.01383 4.86092 6.85097 5.25059C6.68811 5.64027 6.44941 5.99369 6.14875 6.29032C5.53949 6.89573 4.71481 7.23462 3.85584 7.23253C2.99837 7.23196 2.1756 6.89394 1.56544 6.29158C1.26587 5.99394 1.02798 5.64012 0.865404 5.2504C0.702831 4.86067 0.618772 4.4427 0.618042 4.02044C0.618042 3.16766 0.958199 2.35141 1.5667 1.7493C2.17632 1.14613 2.99945 0.807973 3.8571 0.80835C4.71631 0.80835 5.54025 1.14719 6.14875 1.7493C6.75599 2.35141 7.09741 3.16766 7.09741 4.02044Z" fill="black"/>
</svg>
