<svg width="45" height="61" viewBox="0 0 45 61" fill="none" xmlns="http://www.w3.org/2000/svg">
<path fill-rule="evenodd" clip-rule="evenodd" d="M8.47407 9.02269C12.3646 5.25445 17.0509 3.37036 22.5328 3.37036C28.0147 3.37036 32.6788 5.23305 36.5251 8.95848C40.3716 12.6839 42.2946 17.2015 42.2946 22.5112C42.2946 25.1661 41.6093 28.2064 40.2387 31.6322C38.8682 35.0576 37.2103 38.2694 35.2652 41.2668C33.32 44.2642 31.397 47.0689 29.4959 49.6811C27.5948 52.2933 25.9811 54.3698 24.6549 55.9115L22.5328 58.0953C22.0023 57.4958 21.2948 56.7038 20.4107 55.7188C19.5266 54.734 17.935 52.7642 15.636 49.8094C13.3371 46.8548 11.3256 43.986 9.6014 41.2026C7.87723 38.4193 6.30778 35.272 4.89308 31.7605C3.47835 28.2492 2.771 25.1661 2.771 22.5112C2.771 17.2015 4.67199 12.7053 8.47407 9.02269Z" stroke="white" stroke-width="5" stroke-linecap="round" stroke-linejoin="round"/>
<path d="M25.5733 23.1318C25.5733 24.811 24.2122 26.1721 22.533 26.1721C20.8539 26.1721 19.4927 24.811 19.4927 23.1318C19.4927 21.4527 20.8539 20.0916 22.533 20.0916C24.2122 20.0916 25.5733 21.4527 25.5733 23.1318Z" stroke="white" stroke-width="5" stroke-linecap="round" stroke-linejoin="round"/>
</svg>
