<svg width="28" height="23" viewBox="0 0 28 23" fill="none" xmlns="http://www.w3.org/2000/svg">
<path d="M27.3761 3.39517C26.3923 3.83103 25.3355 4.12553 24.2245 4.25864C25.3709 3.5728 26.2285 2.49337 26.6374 1.22176C25.5604 1.8614 24.3816 2.31164 23.1523 2.5529C22.3257 1.67042 21.2308 1.0855 20.0376 0.888945C18.8444 0.692393 17.6197 0.895209 16.5536 1.4659C15.4875 2.0366 14.6397 2.94324 14.1418 4.04507C13.6438 5.14691 13.5237 6.38228 13.7999 7.55939C11.6175 7.44984 9.4826 6.88269 7.53364 5.89477C5.58468 4.90685 3.86527 3.52023 2.48698 1.8249C2.0157 2.63772 1.74472 3.58011 1.74472 4.58377C1.7442 5.48729 1.96673 6.37697 2.39258 7.17387C2.81843 7.97078 3.43443 8.65027 4.18592 9.15205C3.31439 9.12432 2.46209 8.88887 1.69995 8.46528V8.53596C1.69986 9.80318 2.13827 11.0314 2.94079 12.0122C3.74331 12.9931 4.86051 13.6661 6.10283 13.9171C5.29434 14.1358 4.4467 14.1681 3.62393 14.0113C3.97443 15.1017 4.65719 16.0552 5.57661 16.7383C6.49603 17.4214 7.60609 17.8 8.75138 17.8209C6.80718 19.3469 4.40611 20.1747 1.93441 20.1711C1.49657 20.1712 1.05911 20.1456 0.624268 20.0945C3.13318 21.7074 6.05374 22.5634 9.0365 22.56C19.1335 22.56 24.6533 14.1986 24.6533 6.94684C24.6533 6.71124 24.6474 6.47328 24.6368 6.23768C25.7105 5.46135 26.6373 4.50001 27.3738 3.3987L27.3761 3.39517Z" fill="black"/>
</svg>
